<mxfile host="app.diagrams.net" agent="Mozilla/5.0 (Windows NT 10.0; Win64; x64) AppleWebKit/537.36 (KHTML, like Gecko) Chrome/127.0.0.0 Safari/537.36" version="24.7.6">
  <diagram name="Page-1" id="G1D7Ty9W3zU1lqtp-ov4">
    <mxGraphModel dx="1750" dy="928" grid="1" gridSize="10" guides="1" tooltips="1" connect="1" arrows="1" fold="1" page="1" pageScale="1" pageWidth="850" pageHeight="1100" math="0" shadow="0">
      <root>
        <mxCell id="0" />
        <mxCell id="1" parent="0" />
        <mxCell id="SBQ7ikMWirgub6kCIeV2-1" value="&lt;font style=&quot;font-size: 24px;&quot;&gt;Admin&lt;/font&gt;" style="rounded=0;whiteSpace=wrap;html=1;" parent="1" vertex="1">
          <mxGeometry y="20" width="120" height="60" as="geometry" />
        </mxCell>
        <mxCell id="SBQ7ikMWirgub6kCIeV2-2" value="&lt;font style=&quot;font-size: 18px;&quot;&gt;Registered User&lt;/font&gt;" style="rounded=0;whiteSpace=wrap;html=1;" parent="1" vertex="1">
          <mxGeometry x="320" y="20" width="120" height="60" as="geometry" />
        </mxCell>
        <mxCell id="SBQ7ikMWirgub6kCIeV2-3" value="&lt;font style=&quot;font-size: 24px;&quot;&gt;Visitor&lt;/font&gt;" style="rounded=0;whiteSpace=wrap;html=1;" parent="1" vertex="1">
          <mxGeometry x="640" y="20" width="120" height="60" as="geometry" />
        </mxCell>
        <mxCell id="SBQ7ikMWirgub6kCIeV2-4" value="&lt;font style=&quot;font-size: 24px;&quot;&gt;Movies&lt;/font&gt;" style="rounded=0;whiteSpace=wrap;html=1;" parent="1" vertex="1">
          <mxGeometry x="960" y="20" width="120" height="60" as="geometry" />
        </mxCell>
        <mxCell id="SBQ7ikMWirgub6kCIeV2-5" value="&lt;font style=&quot;font-size: 18px;&quot;&gt;Book Ticket&lt;/font&gt;" style="rounded=0;whiteSpace=wrap;html=1;" parent="1" vertex="1">
          <mxGeometry x="1280" y="20" width="120" height="60" as="geometry" />
        </mxCell>
        <mxCell id="SBQ7ikMWirgub6kCIeV2-6" value="&lt;font style=&quot;font-size: 24px;&quot;&gt;Payment&lt;/font&gt;" style="rounded=0;whiteSpace=wrap;html=1;" parent="1" vertex="1">
          <mxGeometry x="1580" y="20" width="120" height="60" as="geometry" />
        </mxCell>
        <mxCell id="SBQ7ikMWirgub6kCIeV2-8" value="" style="endArrow=none;dashed=1;html=1;rounded=0;" parent="1" edge="1" source="ITaJBi5YU8K34w1Ctk7e-1">
          <mxGeometry width="50" height="50" relative="1" as="geometry">
            <mxPoint x="59" y="2120" as="sourcePoint" />
            <mxPoint x="59.09" y="80" as="targetPoint" />
          </mxGeometry>
        </mxCell>
        <mxCell id="SBQ7ikMWirgub6kCIeV2-9" value="" style="endArrow=none;dashed=1;html=1;rounded=0;" parent="1" source="ITaJBi5YU8K34w1Ctk7e-6" edge="1">
          <mxGeometry width="50" height="50" relative="1" as="geometry">
            <mxPoint x="379.09" y="1152.9091574928977" as="sourcePoint" />
            <mxPoint x="379.09" y="80" as="targetPoint" />
          </mxGeometry>
        </mxCell>
        <mxCell id="SBQ7ikMWirgub6kCIeV2-10" value="" style="endArrow=none;dashed=1;html=1;rounded=0;" parent="1" source="SBQ7ikMWirgub6kCIeV2-64" edge="1">
          <mxGeometry width="50" height="50" relative="1" as="geometry">
            <mxPoint x="699.09" y="1152.9091574928977" as="sourcePoint" />
            <mxPoint x="699.09" y="80" as="targetPoint" />
          </mxGeometry>
        </mxCell>
        <mxCell id="SBQ7ikMWirgub6kCIeV2-11" value="" style="endArrow=none;dashed=1;html=1;rounded=0;" parent="1" source="SBQ7ikMWirgub6kCIeV2-19" edge="1">
          <mxGeometry width="50" height="50" relative="1" as="geometry">
            <mxPoint x="1019.09" y="1152.9091574928977" as="sourcePoint" />
            <mxPoint x="1019.09" y="80" as="targetPoint" />
          </mxGeometry>
        </mxCell>
        <mxCell id="SBQ7ikMWirgub6kCIeV2-12" value="" style="endArrow=none;dashed=1;html=1;rounded=0;" parent="1" source="SBQ7ikMWirgub6kCIeV2-75" edge="1">
          <mxGeometry width="50" height="50" relative="1" as="geometry">
            <mxPoint x="1339" y="1920" as="sourcePoint" />
            <mxPoint x="1339.09" y="80" as="targetPoint" />
          </mxGeometry>
        </mxCell>
        <mxCell id="SBQ7ikMWirgub6kCIeV2-13" value="" style="endArrow=none;dashed=1;html=1;rounded=0;" parent="1" source="SBQ7ikMWirgub6kCIeV2-61" edge="1">
          <mxGeometry width="50" height="50" relative="1" as="geometry">
            <mxPoint x="1639" y="1910" as="sourcePoint" />
            <mxPoint x="1639.09" y="80" as="targetPoint" />
          </mxGeometry>
        </mxCell>
        <mxCell id="SBQ7ikMWirgub6kCIeV2-20" value="" style="endArrow=none;dashed=1;html=1;rounded=0;" parent="1" source="SBQ7ikMWirgub6kCIeV2-22" target="SBQ7ikMWirgub6kCIeV2-19" edge="1">
          <mxGeometry width="50" height="50" relative="1" as="geometry">
            <mxPoint x="1019.09" y="1152.9091574928977" as="sourcePoint" />
            <mxPoint x="1019.09" y="80" as="targetPoint" />
          </mxGeometry>
        </mxCell>
        <mxCell id="SBQ7ikMWirgub6kCIeV2-21" style="edgeStyle=orthogonalEdgeStyle;rounded=0;orthogonalLoop=1;jettySize=auto;html=1;exitX=0.25;exitY=0;exitDx=0;exitDy=0;" parent="1" source="SBQ7ikMWirgub6kCIeV2-19" edge="1">
          <mxGeometry relative="1" as="geometry">
            <mxPoint x="1020" y="160" as="targetPoint" />
          </mxGeometry>
        </mxCell>
        <mxCell id="SBQ7ikMWirgub6kCIeV2-19" value="" style="rounded=0;whiteSpace=wrap;html=1;direction=south;" parent="1" vertex="1">
          <mxGeometry x="1005" y="150" width="30" height="110" as="geometry" />
        </mxCell>
        <mxCell id="SBQ7ikMWirgub6kCIeV2-25" value="" style="endArrow=none;dashed=1;html=1;rounded=0;" parent="1" source="SBQ7ikMWirgub6kCIeV2-24" target="SBQ7ikMWirgub6kCIeV2-22" edge="1">
          <mxGeometry width="50" height="50" relative="1" as="geometry">
            <mxPoint x="1019.09" y="1152.9091574928977" as="sourcePoint" />
            <mxPoint x="1020" y="260" as="targetPoint" />
          </mxGeometry>
        </mxCell>
        <mxCell id="SBQ7ikMWirgub6kCIeV2-22" value="" style="rounded=0;whiteSpace=wrap;html=1;direction=south;" parent="1" vertex="1">
          <mxGeometry x="1005" y="310" width="30" height="110" as="geometry" />
        </mxCell>
        <mxCell id="SBQ7ikMWirgub6kCIeV2-27" value="" style="endArrow=none;dashed=1;html=1;rounded=0;" parent="1" source="SBQ7ikMWirgub6kCIeV2-23" target="SBQ7ikMWirgub6kCIeV2-24" edge="1">
          <mxGeometry width="50" height="50" relative="1" as="geometry">
            <mxPoint x="1019.09" y="1152.9091574928977" as="sourcePoint" />
            <mxPoint x="1020" y="420" as="targetPoint" />
          </mxGeometry>
        </mxCell>
        <mxCell id="SBQ7ikMWirgub6kCIeV2-24" value="" style="rounded=0;whiteSpace=wrap;html=1;direction=south;" parent="1" vertex="1">
          <mxGeometry x="1005" y="470" width="30" height="110" as="geometry" />
        </mxCell>
        <mxCell id="SBQ7ikMWirgub6kCIeV2-28" value="" style="endArrow=none;dashed=1;html=1;rounded=0;" parent="1" target="SBQ7ikMWirgub6kCIeV2-23" edge="1">
          <mxGeometry width="50" height="50" relative="1" as="geometry">
            <mxPoint x="1019" y="2120" as="sourcePoint" />
            <mxPoint x="1020" y="580" as="targetPoint" />
          </mxGeometry>
        </mxCell>
        <mxCell id="SBQ7ikMWirgub6kCIeV2-23" value="" style="rounded=0;whiteSpace=wrap;html=1;direction=south;" parent="1" vertex="1">
          <mxGeometry x="1005" y="640" width="30" height="110" as="geometry" />
        </mxCell>
        <mxCell id="SBQ7ikMWirgub6kCIeV2-29" value="" style="endArrow=classic;html=1;rounded=0;entryX=0.145;entryY=1.018;entryDx=0;entryDy=0;entryPerimeter=0;" parent="1" target="SBQ7ikMWirgub6kCIeV2-19" edge="1">
          <mxGeometry relative="1" as="geometry">
            <mxPoint x="60" y="160" as="sourcePoint" />
            <mxPoint x="160" y="200" as="targetPoint" />
          </mxGeometry>
        </mxCell>
        <mxCell id="SBQ7ikMWirgub6kCIeV2-30" value="Label" style="edgeLabel;resizable=0;html=1;;align=center;verticalAlign=middle;" parent="SBQ7ikMWirgub6kCIeV2-29" connectable="0" vertex="1">
          <mxGeometry relative="1" as="geometry" />
        </mxCell>
        <mxCell id="SBQ7ikMWirgub6kCIeV2-31" value="&lt;font style=&quot;font-size: 18px;&quot;&gt;1:AddMovieRecords()&lt;/font&gt;" style="edgeLabel;html=1;align=center;verticalAlign=middle;resizable=0;points=[];" parent="SBQ7ikMWirgub6kCIeV2-29" vertex="1" connectable="0">
          <mxGeometry x="0.0007" relative="1" as="geometry">
            <mxPoint as="offset" />
          </mxGeometry>
        </mxCell>
        <mxCell id="SBQ7ikMWirgub6kCIeV2-33" value="" style="endArrow=classic;html=1;rounded=0;entryX=0.145;entryY=1.067;entryDx=0;entryDy=0;entryPerimeter=0;" parent="1" target="SBQ7ikMWirgub6kCIeV2-22" edge="1">
          <mxGeometry relative="1" as="geometry">
            <mxPoint x="60" y="330" as="sourcePoint" />
            <mxPoint x="160" y="330" as="targetPoint" />
          </mxGeometry>
        </mxCell>
        <mxCell id="SBQ7ikMWirgub6kCIeV2-34" value="Label" style="edgeLabel;resizable=0;html=1;;align=center;verticalAlign=middle;" parent="SBQ7ikMWirgub6kCIeV2-33" connectable="0" vertex="1">
          <mxGeometry relative="1" as="geometry" />
        </mxCell>
        <mxCell id="SBQ7ikMWirgub6kCIeV2-35" value="&lt;font style=&quot;font-size: 18px;&quot;&gt;3: UpdateMovieRecords()&lt;/font&gt;" style="edgeLabel;html=1;align=center;verticalAlign=middle;resizable=0;points=[];" parent="SBQ7ikMWirgub6kCIeV2-33" vertex="1" connectable="0">
          <mxGeometry x="-0.0011" y="-3" relative="1" as="geometry">
            <mxPoint as="offset" />
          </mxGeometry>
        </mxCell>
        <mxCell id="SBQ7ikMWirgub6kCIeV2-36" value="" style="endArrow=classic;html=1;rounded=0;entryX=0.25;entryY=1;entryDx=0;entryDy=0;" parent="1" target="SBQ7ikMWirgub6kCIeV2-24" edge="1">
          <mxGeometry relative="1" as="geometry">
            <mxPoint x="60" y="490" as="sourcePoint" />
            <mxPoint x="160" y="490" as="targetPoint" />
          </mxGeometry>
        </mxCell>
        <mxCell id="SBQ7ikMWirgub6kCIeV2-37" value="Label" style="edgeLabel;resizable=0;html=1;;align=center;verticalAlign=middle;" parent="SBQ7ikMWirgub6kCIeV2-36" connectable="0" vertex="1">
          <mxGeometry relative="1" as="geometry" />
        </mxCell>
        <mxCell id="SBQ7ikMWirgub6kCIeV2-40" value="&lt;font style=&quot;font-size: 18px;&quot;&gt;&lt;font style=&quot;&quot;&gt;5:DeleteMovieRecords(&lt;/font&gt;)&lt;/font&gt;" style="edgeLabel;html=1;align=center;verticalAlign=middle;resizable=0;points=[];" parent="SBQ7ikMWirgub6kCIeV2-36" vertex="1" connectable="0">
          <mxGeometry x="0.02" y="-8" relative="1" as="geometry">
            <mxPoint y="-12" as="offset" />
          </mxGeometry>
        </mxCell>
        <mxCell id="SBQ7ikMWirgub6kCIeV2-41" value="" style="endArrow=classic;html=1;rounded=0;" parent="1" edge="1">
          <mxGeometry relative="1" as="geometry">
            <mxPoint x="380" y="660" as="sourcePoint" />
            <mxPoint x="1003" y="660" as="targetPoint" />
          </mxGeometry>
        </mxCell>
        <mxCell id="SBQ7ikMWirgub6kCIeV2-42" value="Label" style="edgeLabel;resizable=0;html=1;;align=center;verticalAlign=middle;" parent="SBQ7ikMWirgub6kCIeV2-41" connectable="0" vertex="1">
          <mxGeometry relative="1" as="geometry" />
        </mxCell>
        <mxCell id="SBQ7ikMWirgub6kCIeV2-43" value="&lt;font style=&quot;font-size: 18px;&quot;&gt;7:ShowMovies()&lt;/font&gt;" style="edgeLabel;html=1;align=center;verticalAlign=middle;resizable=0;points=[];" parent="SBQ7ikMWirgub6kCIeV2-41" vertex="1" connectable="0">
          <mxGeometry x="0.0159" relative="1" as="geometry">
            <mxPoint as="offset" />
          </mxGeometry>
        </mxCell>
        <mxCell id="SBQ7ikMWirgub6kCIeV2-46" value="" style="endArrow=classic;html=1;rounded=0;entryX=0.727;entryY=0;entryDx=0;entryDy=0;entryPerimeter=0;" parent="1" edge="1" target="ITaJBi5YU8K34w1Ctk7e-1">
          <mxGeometry relative="1" as="geometry">
            <mxPoint x="1005" y="220" as="sourcePoint" />
            <mxPoint x="80" y="220" as="targetPoint" />
          </mxGeometry>
        </mxCell>
        <mxCell id="SBQ7ikMWirgub6kCIeV2-47" value="Label" style="edgeLabel;resizable=0;html=1;;align=center;verticalAlign=middle;rotation=0;" parent="SBQ7ikMWirgub6kCIeV2-46" connectable="0" vertex="1">
          <mxGeometry relative="1" as="geometry" />
        </mxCell>
        <mxCell id="SBQ7ikMWirgub6kCIeV2-49" value="&lt;font style=&quot;font-size: 18px;&quot;&gt;2:return Status&lt;/font&gt;" style="edgeLabel;html=1;align=center;verticalAlign=middle;resizable=0;points=[];" parent="SBQ7ikMWirgub6kCIeV2-46" vertex="1" connectable="0">
          <mxGeometry x="-0.0076" y="-4" relative="1" as="geometry">
            <mxPoint y="4" as="offset" />
          </mxGeometry>
        </mxCell>
        <mxCell id="SBQ7ikMWirgub6kCIeV2-50" value="" style="endArrow=classic;html=1;rounded=0;entryX=0.75;entryY=0;entryDx=0;entryDy=0;" parent="1" edge="1" target="ITaJBi5YU8K34w1Ctk7e-3">
          <mxGeometry relative="1" as="geometry">
            <mxPoint x="1005" y="380" as="sourcePoint" />
            <mxPoint x="80" y="380" as="targetPoint" />
          </mxGeometry>
        </mxCell>
        <mxCell id="SBQ7ikMWirgub6kCIeV2-51" value="Label" style="edgeLabel;resizable=0;html=1;;align=center;verticalAlign=middle;rotation=0;" parent="SBQ7ikMWirgub6kCIeV2-50" connectable="0" vertex="1">
          <mxGeometry relative="1" as="geometry" />
        </mxCell>
        <mxCell id="SBQ7ikMWirgub6kCIeV2-52" value="&lt;font style=&quot;font-size: 18px;&quot;&gt;4:return Status&lt;/font&gt;" style="edgeLabel;html=1;align=center;verticalAlign=middle;resizable=0;points=[];" parent="SBQ7ikMWirgub6kCIeV2-50" vertex="1" connectable="0">
          <mxGeometry x="-0.0076" y="-4" relative="1" as="geometry">
            <mxPoint y="4" as="offset" />
          </mxGeometry>
        </mxCell>
        <mxCell id="SBQ7ikMWirgub6kCIeV2-53" value="" style="endArrow=classic;html=1;rounded=0;entryX=0.75;entryY=0;entryDx=0;entryDy=0;" parent="1" edge="1" target="ITaJBi5YU8K34w1Ctk7e-4">
          <mxGeometry relative="1" as="geometry">
            <mxPoint x="1005" y="548" as="sourcePoint" />
            <mxPoint x="80" y="548" as="targetPoint" />
          </mxGeometry>
        </mxCell>
        <mxCell id="SBQ7ikMWirgub6kCIeV2-54" value="Label" style="edgeLabel;resizable=0;html=1;;align=center;verticalAlign=middle;rotation=0;" parent="SBQ7ikMWirgub6kCIeV2-53" connectable="0" vertex="1">
          <mxGeometry relative="1" as="geometry" />
        </mxCell>
        <mxCell id="SBQ7ikMWirgub6kCIeV2-55" value="&lt;font style=&quot;font-size: 18px;&quot;&gt;6:return Void&lt;/font&gt;" style="edgeLabel;html=1;align=center;verticalAlign=middle;resizable=0;points=[];" parent="SBQ7ikMWirgub6kCIeV2-53" vertex="1" connectable="0">
          <mxGeometry x="-0.0076" y="-4" relative="1" as="geometry">
            <mxPoint y="4" as="offset" />
          </mxGeometry>
        </mxCell>
        <mxCell id="SBQ7ikMWirgub6kCIeV2-56" value="" style="endArrow=classic;html=1;rounded=0;" parent="1" edge="1">
          <mxGeometry relative="1" as="geometry">
            <mxPoint x="1005" y="710" as="sourcePoint" />
            <mxPoint x="400" y="710" as="targetPoint" />
          </mxGeometry>
        </mxCell>
        <mxCell id="SBQ7ikMWirgub6kCIeV2-57" value="Label" style="edgeLabel;resizable=0;html=1;;align=center;verticalAlign=middle;" parent="SBQ7ikMWirgub6kCIeV2-56" connectable="0" vertex="1">
          <mxGeometry relative="1" as="geometry" />
        </mxCell>
        <mxCell id="SBQ7ikMWirgub6kCIeV2-58" value="&lt;font style=&quot;font-size: 18px;&quot;&gt;8:ReturnAllMovies()&lt;/font&gt;" style="edgeLabel;html=1;align=center;verticalAlign=middle;resizable=0;points=[];" parent="SBQ7ikMWirgub6kCIeV2-56" vertex="1" connectable="0">
          <mxGeometry x="0.0001" y="6" relative="1" as="geometry">
            <mxPoint y="-6" as="offset" />
          </mxGeometry>
        </mxCell>
        <mxCell id="SBQ7ikMWirgub6kCIeV2-63" value="" style="endArrow=none;dashed=1;html=1;rounded=0;" parent="1" source="ITaJBi5YU8K34w1Ctk7e-9" target="SBQ7ikMWirgub6kCIeV2-62" edge="1">
          <mxGeometry width="50" height="50" relative="1" as="geometry">
            <mxPoint x="379" y="2062.9090465198865" as="sourcePoint" />
            <mxPoint x="379.09" y="80" as="targetPoint" />
          </mxGeometry>
        </mxCell>
        <mxCell id="SBQ7ikMWirgub6kCIeV2-62" value="" style="rounded=0;whiteSpace=wrap;html=1;direction=north;" parent="1" vertex="1">
          <mxGeometry x="365" y="790" width="30" height="110" as="geometry" />
        </mxCell>
        <mxCell id="SBQ7ikMWirgub6kCIeV2-65" value="" style="endArrow=none;dashed=1;html=1;rounded=0;" parent="1" target="SBQ7ikMWirgub6kCIeV2-64" edge="1" source="ITaJBi5YU8K34w1Ctk7e-18">
          <mxGeometry width="50" height="50" relative="1" as="geometry">
            <mxPoint x="699" y="2110" as="sourcePoint" />
            <mxPoint x="699.09" y="80" as="targetPoint" />
          </mxGeometry>
        </mxCell>
        <mxCell id="SBQ7ikMWirgub6kCIeV2-64" value="" style="rounded=0;whiteSpace=wrap;html=1;direction=south;" parent="1" vertex="1">
          <mxGeometry x="685" y="790" width="30" height="110" as="geometry" />
        </mxCell>
        <mxCell id="SBQ7ikMWirgub6kCIeV2-68" value="" style="endArrow=classic;html=1;rounded=0;edgeStyle=orthogonalEdgeStyle;elbow=vertical;" parent="1" edge="1">
          <mxGeometry relative="1" as="geometry">
            <mxPoint x="700.0000000000001" y="770" as="sourcePoint" />
            <mxPoint x="710" y="830" as="targetPoint" />
            <Array as="points">
              <mxPoint x="760.0000000000001" y="770" />
              <mxPoint x="760.0000000000001" y="830" />
            </Array>
          </mxGeometry>
        </mxCell>
        <mxCell id="SBQ7ikMWirgub6kCIeV2-69" value="Label" style="edgeLabel;resizable=0;html=1;;align=center;verticalAlign=middle;" parent="SBQ7ikMWirgub6kCIeV2-68" connectable="0" vertex="1">
          <mxGeometry relative="1" as="geometry">
            <mxPoint as="offset" />
          </mxGeometry>
        </mxCell>
        <mxCell id="SBQ7ikMWirgub6kCIeV2-70" value="&lt;font style=&quot;font-size: 18px;&quot;&gt;10:GetRegistered()&lt;/font&gt;" style="edgeLabel;html=1;align=center;verticalAlign=middle;resizable=0;points=[];" parent="SBQ7ikMWirgub6kCIeV2-68" vertex="1" connectable="0">
          <mxGeometry x="0.0159" y="-1" relative="1" as="geometry">
            <mxPoint x="51" as="offset" />
          </mxGeometry>
        </mxCell>
        <mxCell id="SBQ7ikMWirgub6kCIeV2-72" value="" style="endArrow=classic;html=1;rounded=0;edgeStyle=orthogonalEdgeStyle;elbow=vertical;" parent="1" target="SBQ7ikMWirgub6kCIeV2-62" edge="1">
          <mxGeometry relative="1" as="geometry">
            <mxPoint x="379.91" y="770" as="sourcePoint" />
            <mxPoint x="399.91" y="830" as="targetPoint" />
            <Array as="points">
              <mxPoint x="440" y="770" />
              <mxPoint x="440" y="830" />
            </Array>
          </mxGeometry>
        </mxCell>
        <mxCell id="SBQ7ikMWirgub6kCIeV2-73" value="Label" style="edgeLabel;resizable=0;html=1;;align=center;verticalAlign=middle;" parent="SBQ7ikMWirgub6kCIeV2-72" connectable="0" vertex="1">
          <mxGeometry relative="1" as="geometry">
            <mxPoint as="offset" />
          </mxGeometry>
        </mxCell>
        <mxCell id="SBQ7ikMWirgub6kCIeV2-74" value="&lt;font style=&quot;font-size: 18px;&quot;&gt;9:Login()&lt;/font&gt;" style="edgeLabel;html=1;align=center;verticalAlign=middle;resizable=0;points=[];" parent="SBQ7ikMWirgub6kCIeV2-72" vertex="1" connectable="0">
          <mxGeometry x="0.0159" y="-1" relative="1" as="geometry">
            <mxPoint x="11" y="-2" as="offset" />
          </mxGeometry>
        </mxCell>
        <mxCell id="SBQ7ikMWirgub6kCIeV2-76" value="" style="endArrow=none;dashed=1;html=1;rounded=0;" parent="1" source="SBQ7ikMWirgub6kCIeV2-91" target="SBQ7ikMWirgub6kCIeV2-75" edge="1">
          <mxGeometry width="50" height="50" relative="1" as="geometry">
            <mxPoint x="1339" y="1920" as="sourcePoint" />
            <mxPoint x="1339.09" y="80" as="targetPoint" />
          </mxGeometry>
        </mxCell>
        <mxCell id="SBQ7ikMWirgub6kCIeV2-75" value="" style="rounded=0;whiteSpace=wrap;html=1;direction=south;" parent="1" vertex="1">
          <mxGeometry x="1325" y="930" width="30" height="110" as="geometry" />
        </mxCell>
        <mxCell id="SBQ7ikMWirgub6kCIeV2-77" value="" style="endArrow=classic;html=1;rounded=0;entryX=0.25;entryY=1;entryDx=0;entryDy=0;" parent="1" edge="1">
          <mxGeometry relative="1" as="geometry">
            <mxPoint x="380" y="970" as="sourcePoint" />
            <mxPoint x="1325" y="978" as="targetPoint" />
          </mxGeometry>
        </mxCell>
        <mxCell id="SBQ7ikMWirgub6kCIeV2-78" value="Label" style="edgeLabel;resizable=0;html=1;;align=center;verticalAlign=middle;" parent="SBQ7ikMWirgub6kCIeV2-77" connectable="0" vertex="1">
          <mxGeometry relative="1" as="geometry" />
        </mxCell>
        <mxCell id="SBQ7ikMWirgub6kCIeV2-79" value="&lt;span style=&quot;font-size: 18px;&quot;&gt;11:BookTicket()&lt;/span&gt;" style="edgeLabel;html=1;align=center;verticalAlign=middle;resizable=0;points=[];" parent="SBQ7ikMWirgub6kCIeV2-77" vertex="1" connectable="0">
          <mxGeometry x="0.02" y="-8" relative="1" as="geometry">
            <mxPoint y="-12" as="offset" />
          </mxGeometry>
        </mxCell>
        <mxCell id="SBQ7ikMWirgub6kCIeV2-81" value="" style="endArrow=none;dashed=1;html=1;rounded=0;" parent="1" source="SBQ7ikMWirgub6kCIeV2-99" target="SBQ7ikMWirgub6kCIeV2-61" edge="1">
          <mxGeometry width="50" height="50" relative="1" as="geometry">
            <mxPoint x="1639" y="1910" as="sourcePoint" />
            <mxPoint x="1639.09" y="80" as="targetPoint" />
          </mxGeometry>
        </mxCell>
        <mxCell id="SBQ7ikMWirgub6kCIeV2-61" value="" style="rounded=0;whiteSpace=wrap;html=1;direction=south;" parent="1" vertex="1">
          <mxGeometry x="1625" y="1070" width="30" height="110" as="geometry" />
        </mxCell>
        <mxCell id="SBQ7ikMWirgub6kCIeV2-85" value="" style="endArrow=classic;html=1;rounded=0;entryX=0.75;entryY=1;entryDx=0;entryDy=0;" parent="1" edge="1">
          <mxGeometry relative="1" as="geometry">
            <mxPoint x="380" y="1100" as="sourcePoint" />
            <mxPoint x="1625" y="1113" as="targetPoint" />
          </mxGeometry>
        </mxCell>
        <mxCell id="SBQ7ikMWirgub6kCIeV2-86" value="Label" style="edgeLabel;resizable=0;html=1;;align=center;verticalAlign=middle;" parent="SBQ7ikMWirgub6kCIeV2-85" connectable="0" vertex="1">
          <mxGeometry relative="1" as="geometry" />
        </mxCell>
        <mxCell id="SBQ7ikMWirgub6kCIeV2-87" value="&lt;span style=&quot;font-size: 18px;&quot;&gt;12:MakePayment()&lt;/span&gt;" style="edgeLabel;html=1;align=center;verticalAlign=middle;resizable=0;points=[];" parent="SBQ7ikMWirgub6kCIeV2-85" vertex="1" connectable="0">
          <mxGeometry x="0.02" y="-8" relative="1" as="geometry">
            <mxPoint x="-4" y="-15" as="offset" />
          </mxGeometry>
        </mxCell>
        <mxCell id="SBQ7ikMWirgub6kCIeV2-88" value="" style="endArrow=classic;html=1;rounded=0;entryX=0.75;entryY=0;entryDx=0;entryDy=0;" parent="1" edge="1" target="ITaJBi5YU8K34w1Ctk7e-11">
          <mxGeometry relative="1" as="geometry">
            <mxPoint x="1625" y="1153" as="sourcePoint" />
            <mxPoint x="410" y="1150" as="targetPoint" />
          </mxGeometry>
        </mxCell>
        <mxCell id="SBQ7ikMWirgub6kCIeV2-89" value="Label" style="edgeLabel;resizable=0;html=1;;align=center;verticalAlign=middle;" parent="SBQ7ikMWirgub6kCIeV2-88" connectable="0" vertex="1">
          <mxGeometry relative="1" as="geometry" />
        </mxCell>
        <mxCell id="SBQ7ikMWirgub6kCIeV2-90" value="&lt;span style=&quot;font-size: 18px;&quot;&gt;13:Confirmation&lt;/span&gt;" style="edgeLabel;html=1;align=center;verticalAlign=middle;resizable=0;points=[];" parent="SBQ7ikMWirgub6kCIeV2-88" vertex="1" connectable="0">
          <mxGeometry x="0.02" y="-8" relative="1" as="geometry">
            <mxPoint x="9" y="5" as="offset" />
          </mxGeometry>
        </mxCell>
        <mxCell id="SBQ7ikMWirgub6kCIeV2-92" value="" style="endArrow=none;dashed=1;html=1;rounded=0;" parent="1" target="SBQ7ikMWirgub6kCIeV2-91" edge="1" source="ITaJBi5YU8K34w1Ctk7e-15">
          <mxGeometry width="50" height="50" relative="1" as="geometry">
            <mxPoint x="1339" y="2120" as="sourcePoint" />
            <mxPoint x="1340" y="1040" as="targetPoint" />
          </mxGeometry>
        </mxCell>
        <mxCell id="SBQ7ikMWirgub6kCIeV2-91" value="" style="rounded=0;whiteSpace=wrap;html=1;direction=south;" parent="1" vertex="1">
          <mxGeometry x="1325" y="1230" width="30" height="110" as="geometry" />
        </mxCell>
        <mxCell id="SBQ7ikMWirgub6kCIeV2-93" value="" style="endArrow=classic;html=1;rounded=0;entryX=0.25;entryY=1;entryDx=0;entryDy=0;" parent="1" edge="1">
          <mxGeometry relative="1" as="geometry">
            <mxPoint x="380" y="1260" as="sourcePoint" />
            <mxPoint x="1325" y="1268" as="targetPoint" />
          </mxGeometry>
        </mxCell>
        <mxCell id="SBQ7ikMWirgub6kCIeV2-94" value="Label" style="edgeLabel;resizable=0;html=1;;align=center;verticalAlign=middle;" parent="SBQ7ikMWirgub6kCIeV2-93" connectable="0" vertex="1">
          <mxGeometry relative="1" as="geometry" />
        </mxCell>
        <mxCell id="SBQ7ikMWirgub6kCIeV2-95" value="&lt;span style=&quot;font-size: 18px;&quot;&gt;14:return SeatNo&lt;/span&gt;" style="edgeLabel;html=1;align=center;verticalAlign=middle;resizable=0;points=[];" parent="SBQ7ikMWirgub6kCIeV2-93" vertex="1" connectable="0">
          <mxGeometry x="0.02" y="-8" relative="1" as="geometry">
            <mxPoint y="-12" as="offset" />
          </mxGeometry>
        </mxCell>
        <mxCell id="SBQ7ikMWirgub6kCIeV2-96" value="" style="endArrow=classic;html=1;rounded=0;entryX=0.636;entryY=0;entryDx=0;entryDy=0;entryPerimeter=0;" parent="1" edge="1" target="ITaJBi5YU8K34w1Ctk7e-13">
          <mxGeometry relative="1" as="geometry">
            <mxPoint x="1325" y="1308" as="sourcePoint" />
            <mxPoint x="380" y="1300" as="targetPoint" />
          </mxGeometry>
        </mxCell>
        <mxCell id="SBQ7ikMWirgub6kCIeV2-97" value="Label" style="edgeLabel;resizable=0;html=1;;align=center;verticalAlign=middle;" parent="SBQ7ikMWirgub6kCIeV2-96" connectable="0" vertex="1">
          <mxGeometry relative="1" as="geometry" />
        </mxCell>
        <mxCell id="SBQ7ikMWirgub6kCIeV2-98" value="&lt;span style=&quot;font-size: 18px;&quot;&gt;15:CancelTicket()&lt;/span&gt;" style="edgeLabel;html=1;align=center;verticalAlign=middle;resizable=0;points=[];" parent="SBQ7ikMWirgub6kCIeV2-96" vertex="1" connectable="0">
          <mxGeometry x="0.02" y="-8" relative="1" as="geometry">
            <mxPoint x="17" y="4" as="offset" />
          </mxGeometry>
        </mxCell>
        <mxCell id="SBQ7ikMWirgub6kCIeV2-100" value="" style="endArrow=none;dashed=1;html=1;rounded=0;" parent="1" target="SBQ7ikMWirgub6kCIeV2-99" edge="1">
          <mxGeometry width="50" height="50" relative="1" as="geometry">
            <mxPoint x="1639" y="2120" as="sourcePoint" />
            <mxPoint x="1640" y="1180" as="targetPoint" />
          </mxGeometry>
        </mxCell>
        <mxCell id="SBQ7ikMWirgub6kCIeV2-99" value="" style="rounded=0;whiteSpace=wrap;html=1;direction=south;" parent="1" vertex="1">
          <mxGeometry x="1625" y="1380" width="30" height="110" as="geometry" />
        </mxCell>
        <mxCell id="SBQ7ikMWirgub6kCIeV2-101" value="" style="endArrow=classic;html=1;rounded=0;entryX=0.25;entryY=1;entryDx=0;entryDy=0;" parent="1" target="SBQ7ikMWirgub6kCIeV2-99" edge="1">
          <mxGeometry relative="1" as="geometry">
            <mxPoint x="1340" y="1410" as="sourcePoint" />
            <mxPoint x="1440" y="1410" as="targetPoint" />
          </mxGeometry>
        </mxCell>
        <mxCell id="SBQ7ikMWirgub6kCIeV2-102" value="Label" style="edgeLabel;resizable=0;html=1;;align=center;verticalAlign=middle;" parent="SBQ7ikMWirgub6kCIeV2-101" connectable="0" vertex="1">
          <mxGeometry relative="1" as="geometry" />
        </mxCell>
        <mxCell id="SBQ7ikMWirgub6kCIeV2-103" value="&lt;font style=&quot;font-size: 18px;&quot;&gt;16:ReturnPayment()&lt;/font&gt;" style="edgeLabel;html=1;align=center;verticalAlign=middle;resizable=0;points=[];" parent="SBQ7ikMWirgub6kCIeV2-101" vertex="1" connectable="0">
          <mxGeometry x="0.0419" y="2" relative="1" as="geometry">
            <mxPoint x="-1" as="offset" />
          </mxGeometry>
        </mxCell>
        <mxCell id="SBQ7ikMWirgub6kCIeV2-105" value="" style="endArrow=classic;html=1;rounded=0;entryX=0.624;entryY=0.078;entryDx=0;entryDy=0;entryPerimeter=0;" parent="1" edge="1" target="ITaJBi5YU8K34w1Ctk7e-15">
          <mxGeometry relative="1" as="geometry">
            <mxPoint x="1625" y="1450" as="sourcePoint" />
            <mxPoint x="1360" y="1450" as="targetPoint" />
          </mxGeometry>
        </mxCell>
        <mxCell id="SBQ7ikMWirgub6kCIeV2-106" value="Label" style="edgeLabel;resizable=0;html=1;;align=center;verticalAlign=middle;" parent="SBQ7ikMWirgub6kCIeV2-105" connectable="0" vertex="1">
          <mxGeometry relative="1" as="geometry" />
        </mxCell>
        <mxCell id="SBQ7ikMWirgub6kCIeV2-107" value="&lt;font style=&quot;font-size: 18px;&quot;&gt;17:return Payment&lt;/font&gt;" style="edgeLabel;html=1;align=center;verticalAlign=middle;resizable=0;points=[];" parent="SBQ7ikMWirgub6kCIeV2-105" vertex="1" connectable="0">
          <mxGeometry x="0.0419" y="2" relative="1" as="geometry">
            <mxPoint x="4" as="offset" />
          </mxGeometry>
        </mxCell>
        <mxCell id="SBQ7ikMWirgub6kCIeV2-108" value="" style="endArrow=classic;html=1;rounded=0;" parent="1" edge="1">
          <mxGeometry relative="1" as="geometry">
            <mxPoint x="1340" y="1568" as="sourcePoint" />
            <mxPoint x="400" y="1568" as="targetPoint" />
          </mxGeometry>
        </mxCell>
        <mxCell id="SBQ7ikMWirgub6kCIeV2-109" value="Label" style="edgeLabel;resizable=0;html=1;;align=center;verticalAlign=middle;" parent="SBQ7ikMWirgub6kCIeV2-108" connectable="0" vertex="1">
          <mxGeometry relative="1" as="geometry" />
        </mxCell>
        <mxCell id="SBQ7ikMWirgub6kCIeV2-110" value="&lt;span style=&quot;font-size: 18px;&quot;&gt;18:return Payment&lt;/span&gt;" style="edgeLabel;html=1;align=center;verticalAlign=middle;resizable=0;points=[];" parent="SBQ7ikMWirgub6kCIeV2-108" vertex="1" connectable="0">
          <mxGeometry x="0.02" y="-8" relative="1" as="geometry">
            <mxPoint x="17" y="4" as="offset" />
          </mxGeometry>
        </mxCell>
        <mxCell id="SBQ7ikMWirgub6kCIeV2-111" value="" style="rounded=0;whiteSpace=wrap;html=1;direction=south;" parent="1" vertex="1">
          <mxGeometry x="1000" y="1690" width="30" height="110" as="geometry" />
        </mxCell>
        <mxCell id="SBQ7ikMWirgub6kCIeV2-112" value="" style="endArrow=classic;html=1;rounded=0;entryX=0.25;entryY=1;entryDx=0;entryDy=0;" parent="1" target="SBQ7ikMWirgub6kCIeV2-111" edge="1">
          <mxGeometry relative="1" as="geometry">
            <mxPoint x="700" y="1720" as="sourcePoint" />
            <mxPoint x="800" y="1720" as="targetPoint" />
          </mxGeometry>
        </mxCell>
        <mxCell id="SBQ7ikMWirgub6kCIeV2-113" value="Label" style="edgeLabel;resizable=0;html=1;;align=center;verticalAlign=middle;" parent="SBQ7ikMWirgub6kCIeV2-112" connectable="0" vertex="1">
          <mxGeometry relative="1" as="geometry" />
        </mxCell>
        <mxCell id="SBQ7ikMWirgub6kCIeV2-114" value="&lt;font style=&quot;font-size: 18px;&quot;&gt;19:ViewMovies()&lt;/font&gt;" style="edgeLabel;html=1;align=center;verticalAlign=middle;resizable=0;points=[];" parent="SBQ7ikMWirgub6kCIeV2-112" vertex="1" connectable="0">
          <mxGeometry x="0.0622" y="-3" relative="1" as="geometry">
            <mxPoint x="-1" as="offset" />
          </mxGeometry>
        </mxCell>
        <mxCell id="SBQ7ikMWirgub6kCIeV2-115" value="" style="endArrow=classic;html=1;rounded=0;entryX=0.75;entryY=0;entryDx=0;entryDy=0;" parent="1" edge="1" target="ITaJBi5YU8K34w1Ctk7e-18">
          <mxGeometry relative="1" as="geometry">
            <mxPoint x="1005" y="1770" as="sourcePoint" />
            <mxPoint x="720" y="1772" as="targetPoint" />
          </mxGeometry>
        </mxCell>
        <mxCell id="SBQ7ikMWirgub6kCIeV2-116" value="Label" style="edgeLabel;resizable=0;html=1;;align=center;verticalAlign=middle;" parent="SBQ7ikMWirgub6kCIeV2-115" connectable="0" vertex="1">
          <mxGeometry relative="1" as="geometry" />
        </mxCell>
        <mxCell id="SBQ7ikMWirgub6kCIeV2-117" value="&lt;font style=&quot;font-size: 18px;&quot;&gt;20:return AllMovies&lt;/font&gt;" style="edgeLabel;html=1;align=center;verticalAlign=middle;resizable=0;points=[];" parent="SBQ7ikMWirgub6kCIeV2-115" vertex="1" connectable="0">
          <mxGeometry x="0.0622" y="-3" relative="1" as="geometry">
            <mxPoint x="-1" as="offset" />
          </mxGeometry>
        </mxCell>
        <mxCell id="SBQ7ikMWirgub6kCIeV2-119" value="" style="endArrow=none;dashed=1;html=1;rounded=0;" parent="1" target="SBQ7ikMWirgub6kCIeV2-118" edge="1">
          <mxGeometry width="50" height="50" relative="1" as="geometry">
            <mxPoint x="379" y="2120" as="sourcePoint" />
            <mxPoint x="380" y="900" as="targetPoint" />
          </mxGeometry>
        </mxCell>
        <mxCell id="SBQ7ikMWirgub6kCIeV2-118" value="" style="rounded=0;whiteSpace=wrap;html=1;direction=north;" parent="1" vertex="1">
          <mxGeometry x="365" y="1840" width="30" height="110" as="geometry" />
        </mxCell>
        <mxCell id="SBQ7ikMWirgub6kCIeV2-120" value="" style="endArrow=classic;html=1;rounded=0;edgeStyle=orthogonalEdgeStyle;elbow=vertical;" parent="1" edge="1">
          <mxGeometry relative="1" as="geometry">
            <mxPoint x="379.90999999999997" y="1820" as="sourcePoint" />
            <mxPoint x="395" y="1880" as="targetPoint" />
            <Array as="points">
              <mxPoint x="440" y="1820" />
              <mxPoint x="440" y="1880" />
            </Array>
          </mxGeometry>
        </mxCell>
        <mxCell id="SBQ7ikMWirgub6kCIeV2-121" value="Label" style="edgeLabel;resizable=0;html=1;;align=center;verticalAlign=middle;" parent="SBQ7ikMWirgub6kCIeV2-120" connectable="0" vertex="1">
          <mxGeometry relative="1" as="geometry">
            <mxPoint as="offset" />
          </mxGeometry>
        </mxCell>
        <mxCell id="SBQ7ikMWirgub6kCIeV2-122" value="&lt;font style=&quot;font-size: 18px;&quot;&gt;21:Logout()&lt;/font&gt;" style="edgeLabel;html=1;align=center;verticalAlign=middle;resizable=0;points=[];" parent="SBQ7ikMWirgub6kCIeV2-120" vertex="1" connectable="0">
          <mxGeometry x="0.0159" y="-1" relative="1" as="geometry">
            <mxPoint x="11" y="-2" as="offset" />
          </mxGeometry>
        </mxCell>
        <mxCell id="ITaJBi5YU8K34w1Ctk7e-2" value="" style="endArrow=none;dashed=1;html=1;rounded=0;" edge="1" parent="1" source="ITaJBi5YU8K34w1Ctk7e-4" target="ITaJBi5YU8K34w1Ctk7e-1">
          <mxGeometry width="50" height="50" relative="1" as="geometry">
            <mxPoint x="59" y="2120" as="sourcePoint" />
            <mxPoint x="59.09" y="80" as="targetPoint" />
          </mxGeometry>
        </mxCell>
        <mxCell id="ITaJBi5YU8K34w1Ctk7e-1" value="" style="rounded=0;whiteSpace=wrap;html=1;direction=south;" vertex="1" parent="1">
          <mxGeometry x="40" y="140" width="30" height="110" as="geometry" />
        </mxCell>
        <mxCell id="ITaJBi5YU8K34w1Ctk7e-3" value="" style="rounded=0;whiteSpace=wrap;html=1;direction=south;" vertex="1" parent="1">
          <mxGeometry x="40" y="300" width="30" height="110" as="geometry" />
        </mxCell>
        <mxCell id="ITaJBi5YU8K34w1Ctk7e-5" value="" style="endArrow=none;dashed=1;html=1;rounded=0;" edge="1" parent="1" target="ITaJBi5YU8K34w1Ctk7e-4">
          <mxGeometry width="50" height="50" relative="1" as="geometry">
            <mxPoint x="59" y="2120" as="sourcePoint" />
            <mxPoint x="55" y="250" as="targetPoint" />
          </mxGeometry>
        </mxCell>
        <mxCell id="ITaJBi5YU8K34w1Ctk7e-4" value="" style="rounded=0;whiteSpace=wrap;html=1;direction=south;" vertex="1" parent="1">
          <mxGeometry x="40" y="470" width="30" height="110" as="geometry" />
        </mxCell>
        <mxCell id="ITaJBi5YU8K34w1Ctk7e-7" value="" style="endArrow=none;dashed=1;html=1;rounded=0;" edge="1" parent="1" source="SBQ7ikMWirgub6kCIeV2-62" target="ITaJBi5YU8K34w1Ctk7e-6">
          <mxGeometry width="50" height="50" relative="1" as="geometry">
            <mxPoint x="380" y="790" as="sourcePoint" />
            <mxPoint x="379.09" y="80" as="targetPoint" />
          </mxGeometry>
        </mxCell>
        <mxCell id="ITaJBi5YU8K34w1Ctk7e-6" value="" style="rounded=0;whiteSpace=wrap;html=1;direction=south;" vertex="1" parent="1">
          <mxGeometry x="365" y="640" width="35" height="110" as="geometry" />
        </mxCell>
        <mxCell id="ITaJBi5YU8K34w1Ctk7e-10" value="" style="endArrow=none;dashed=1;html=1;rounded=0;" edge="1" parent="1" source="ITaJBi5YU8K34w1Ctk7e-11" target="ITaJBi5YU8K34w1Ctk7e-9">
          <mxGeometry width="50" height="50" relative="1" as="geometry">
            <mxPoint x="380" y="1840" as="sourcePoint" />
            <mxPoint x="380" y="900" as="targetPoint" />
          </mxGeometry>
        </mxCell>
        <mxCell id="ITaJBi5YU8K34w1Ctk7e-9" value="" style="rounded=0;whiteSpace=wrap;html=1;direction=south;" vertex="1" parent="1">
          <mxGeometry x="365" y="930" width="30" height="110" as="geometry" />
        </mxCell>
        <mxCell id="ITaJBi5YU8K34w1Ctk7e-12" value="" style="endArrow=none;dashed=1;html=1;rounded=0;" edge="1" parent="1" source="ITaJBi5YU8K34w1Ctk7e-13" target="ITaJBi5YU8K34w1Ctk7e-11">
          <mxGeometry width="50" height="50" relative="1" as="geometry">
            <mxPoint x="380" y="1840" as="sourcePoint" />
            <mxPoint x="380" y="1040" as="targetPoint" />
          </mxGeometry>
        </mxCell>
        <mxCell id="ITaJBi5YU8K34w1Ctk7e-11" value="" style="rounded=0;whiteSpace=wrap;html=1;direction=south;" vertex="1" parent="1">
          <mxGeometry x="370" y="1070" width="30" height="110" as="geometry" />
        </mxCell>
        <mxCell id="ITaJBi5YU8K34w1Ctk7e-14" value="" style="endArrow=none;dashed=1;html=1;rounded=0;" edge="1" parent="1" source="SBQ7ikMWirgub6kCIeV2-118" target="ITaJBi5YU8K34w1Ctk7e-13">
          <mxGeometry width="50" height="50" relative="1" as="geometry">
            <mxPoint x="380" y="1840" as="sourcePoint" />
            <mxPoint x="385" y="1180" as="targetPoint" />
          </mxGeometry>
        </mxCell>
        <mxCell id="ITaJBi5YU8K34w1Ctk7e-13" value="" style="rounded=0;whiteSpace=wrap;html=1;direction=south;" vertex="1" parent="1">
          <mxGeometry x="370" y="1230" width="30" height="110" as="geometry" />
        </mxCell>
        <mxCell id="ITaJBi5YU8K34w1Ctk7e-16" value="" style="endArrow=none;dashed=1;html=1;rounded=0;" edge="1" parent="1" target="ITaJBi5YU8K34w1Ctk7e-15">
          <mxGeometry width="50" height="50" relative="1" as="geometry">
            <mxPoint x="1339" y="2120" as="sourcePoint" />
            <mxPoint x="1340" y="1340" as="targetPoint" />
          </mxGeometry>
        </mxCell>
        <mxCell id="ITaJBi5YU8K34w1Ctk7e-15" value="" style="rounded=0;whiteSpace=wrap;html=1;direction=south;" vertex="1" parent="1">
          <mxGeometry x="1325" y="1380" width="30" height="110" as="geometry" />
        </mxCell>
        <mxCell id="ITaJBi5YU8K34w1Ctk7e-17" value="" style="rounded=0;whiteSpace=wrap;html=1;direction=south;" vertex="1" parent="1">
          <mxGeometry x="367.5" y="1520" width="30" height="110" as="geometry" />
        </mxCell>
        <mxCell id="ITaJBi5YU8K34w1Ctk7e-19" value="" style="endArrow=none;dashed=1;html=1;rounded=0;" edge="1" parent="1" target="ITaJBi5YU8K34w1Ctk7e-18">
          <mxGeometry width="50" height="50" relative="1" as="geometry">
            <mxPoint x="699" y="2110" as="sourcePoint" />
            <mxPoint x="700" y="900" as="targetPoint" />
          </mxGeometry>
        </mxCell>
        <mxCell id="ITaJBi5YU8K34w1Ctk7e-18" value="" style="rounded=0;whiteSpace=wrap;html=1;direction=south;" vertex="1" parent="1">
          <mxGeometry x="685" y="1690" width="30" height="110" as="geometry" />
        </mxCell>
      </root>
    </mxGraphModel>
  </diagram>
</mxfile>
